<?xml version="1.0" ?><svg xmlns="http://www.w3.org/2000/svg" xmlns:xlink="http://www.w3.org/1999/xlink" version="1.1" viewBox="0 0 512 512" style="enable-background:new 0 0 512 512;" xml:space="preserve"><g id="_x30_2_Graph_Chart"><g><linearGradient id="SVGID_1_" gradientUnits="userSpaceOnUse" x1="285.5213" y1="-214.7001" x2="226.0146" y2="892.1244"><stop offset="0" style="stop-color:#EAE9FE"/><stop offset="0.4236" style="stop-color:#EEEEFE"/><stop offset="0.8967" style="stop-color:#FBFBFF"/><stop offset="1" style="stop-color:#FFFFFF"/></linearGradient><path style="fill:url(#SVGID_1_);" d="M472.914,264.434c-9.683-7.535-21.378-14.027-25.882-25.439    c-6.125-15.52,3.665-32.176,9.439-47.831c17.628-47.798-4.996-104.402-45.589-135.186    C333.444-2.749,182.282,17.836,161.159,99.006c-8.936,34.337,7.073,73.513-9.306,104.987    c-20.667,39.713-75.492,42.391-110.802,60.05c-43.746,21.878-52.499,69.515-21.125,105.783    c11.521,13.318,26.262,22.493,36.829,37.044c15.288,21.055,23.863,44.338,44.319,61.705c28.805,24.456,76.964,30.52,102.464,2.636    c14.36-15.702,19.032-38.836,34.706-53.226c20.633-18.942,53.243-16.394,79.499-6.639c26.255,9.754,50.606,25.505,78.261,29.944    c43.239,6.94,89.601-18.431,107.066-58.591S507.476,291.328,472.914,264.434z"/><path style="fill:#EDEDED;" d="M500.65,119.484V446.84c0,16.818-13.634,30.452-30.452,30.452H43.875    c-16.818,0-30.452-13.634-30.452-30.452V119.484H500.65z"/><path style="fill:#2769FD;" d="M500.65,118.678V65.353c0-16.818-13.634-30.452-30.452-30.452H43.875    c-16.818,0-30.452,13.634-30.452,30.452v53.325H500.65z"/><path style="fill:#FF5859;" d="M190.929,333.581v85.085h-47.767v-85.085c0-6.595,5.347-11.942,11.942-11.942h23.884    C185.582,321.639,190.929,326.985,190.929,333.581z"/><path style="fill:#F9BB40;" d="M275.516,287.784v130.882h-47.767V287.784c0-6.595,5.347-11.942,11.942-11.942h23.884    C270.17,275.842,275.516,281.189,275.516,287.784z"/><path style="fill:#5EDB6B;" d="M360.104,223.865v194.801h-47.767V223.865c0-6.595,5.347-11.942,11.942-11.942h23.884    C354.758,211.923,360.104,217.27,360.104,223.865z"/><circle style="fill:#EDEDED;" cx="70.097" cy="76.572" r="17.196"/><circle style="fill:#EDEDED;" cx="125.181" cy="76.572" r="17.196"/><circle style="fill:#EDEDED;" cx="180.264" cy="76.572" r="17.196"/><path style="fill:#EDEDED;" d="M439.645,87.992H275.967c-6.308,0-11.419-5.113-11.419-11.419c0-6.306,5.111-11.419,11.419-11.419    h163.678c6.308,0,11.419,5.113,11.419,11.419C451.064,82.879,445.953,87.992,439.645,87.992z"/><path style="fill:#332E8E;" d="M43.875,481.396h426.323c19.499,0,35.363-15.864,35.363-35.363c0-79.868,0-301.063,0-380.68    c0-19.499-15.864-35.363-35.363-35.363H43.875c-19.499,0-35.363,15.864-35.363,35.363c0,79.617,0,300.812,0,380.68    C8.512,465.532,24.376,481.396,43.875,481.396z M18.334,65.353c0-14.083,11.458-25.542,25.542-25.542h426.323    c14.083,0,25.542,11.458,25.542,25.542v48.414H18.334V65.353z M18.334,123.588H495.74v322.445    c0,14.083-11.458,25.542-25.542,25.542H43.875c-14.083,0-25.542-11.458-25.542-25.542V123.588z"/><path style="fill:#332E8E;" d="M70.314,54.683c-12.189,0-22.106,9.917-22.106,22.106s9.917,22.106,22.106,22.106    c12.191,0,22.108-9.917,22.108-22.106S82.504,54.683,70.314,54.683z M70.314,89.074c-6.775,0-12.285-5.51-12.285-12.285    s5.51-12.285,12.285-12.285S82.6,70.015,82.6,76.789S77.088,89.074,70.314,89.074z"/><path style="fill:#332E8E;" d="M125.398,54.683c-12.189,0-22.106,9.917-22.106,22.106s9.917,22.106,22.106,22.106    s22.106-9.917,22.106-22.106S137.587,54.683,125.398,54.683z M125.398,89.074c-6.775,0-12.285-5.51-12.285-12.285    s5.51-12.285,12.285-12.285s12.285,5.51,12.285,12.285S132.173,89.074,125.398,89.074z"/><path style="fill:#332E8E;" d="M180.481,54.683c-12.189,0-22.106,9.917-22.106,22.106s9.917,22.106,22.106,22.106    c12.191,0,22.108-9.917,22.108-22.106S192.671,54.683,180.481,54.683z M180.481,89.074c-6.775,0-12.285-5.51-12.285-12.285    s5.51-12.285,12.285-12.285s12.286,5.51,12.286,12.285S187.255,89.074,180.481,89.074z"/><path style="fill:#332E8E;" d="M439.861,60.46H276.184c-9.005,0-16.331,7.326-16.331,16.331s7.326,16.329,16.331,16.329h163.677    c9.005,0,16.331-7.325,16.331-16.329S448.866,60.46,439.861,60.46z M439.861,83.299H276.184c-3.589,0-6.509-2.919-6.509-6.508    s2.921-6.509,6.509-6.509h163.677c3.589,0,6.509,2.921,6.509,6.509S443.45,83.299,439.861,83.299z"/><path style="fill:#332E8E;" d="M73.397,199.758c1.256,0,2.513-0.48,3.472-1.437l20.273-20.26v240.605    c0,2.713,2.198,4.911,4.911,4.911c103.561,0,191.105,0,295.577,0l-20.272,20.273c-1.918,1.917-1.918,5.027,0,6.944    c1.918,1.918,5.026,1.918,6.944,0l28.646-28.646c0.013-0.013,0.016-0.03,0.028-0.042c1.885-1.918,1.902-5.027-0.08-6.955    l-28.593-28.61c-1.917-1.921-5.026-1.918-6.946-0.003c-1.918,1.917-1.918,5.026-0.002,6.946l20.26,20.273h-32.601v-189.89    c0-9.292-7.561-16.852-16.853-16.852h-23.884c-9.292,0-16.852,7.56-16.852,16.852v189.89h-26.999v-125.97    c0-9.292-7.56-16.853-16.852-16.853h-23.884c-9.292,0-16.852,7.561-16.852,16.853v125.97H195.84V333.58    c0-9.292-7.561-16.852-16.853-16.852h-23.882c-9.292,0-16.853,7.56-16.853,16.852v80.175h-31.287V178.047l20.273,20.272    c1.918,1.918,5.026,1.918,6.944,0c1.918-1.917,1.918-5.027,0-6.944l-28.646-28.646c-0.013-0.013-0.03-0.016-0.042-0.028    c-1.974-1.94-5.088-1.839-6.955,0.08l-28.61,28.593c-1.92,1.917-1.92,5.026-0.003,6.946    C70.883,199.278,72.139,199.758,73.397,199.758z M317.248,223.865c0-3.876,3.154-7.03,7.03-7.03h23.884    c3.878,0,7.032,3.154,7.032,7.03v189.89h-37.946V223.865z M232.661,287.785c0-3.878,3.154-7.032,7.03-7.032h23.884    c3.876,0,7.03,3.154,7.03,7.032v125.97h-37.945V287.785z M148.072,333.58c0-3.876,3.154-7.03,7.032-7.03h23.882    c3.878,0,7.032,3.154,7.032,7.03v80.175h-37.946V333.58z"/></g></g><g id="Layer_1"/></svg>